<?xml version="1.0" encoding="UTF-8" standalone="no"?>
<svg width="32" height="32" viewBox="0 0 32 32" xmlns="http://www.w3.org/2000/svg">
  <!-- Background -->
  <rect width="32" height="32" rx="4" fill="#f0f0f0"/>
  
  <!-- Snake body segments -->
  <rect x="6" y="6" width="4" height="4" rx="1" fill="#4CAF50"/>
  <rect x="10" y="6" width="4" height="4" rx="1" fill="#4CAF50"/>
  <rect x="14" y="6" width="4" height="4" rx="1" fill="#4CAF50"/>
  <rect x="18" y="6" width="4" height="4" rx="1" fill="#4CAF50"/>
  <rect x="22" y="6" width="4" height="4" rx="1" fill="#4CAF50"/>
  <rect x="22" y="10" width="4" height="4" rx="1" fill="#4CAF50"/>
  <rect x="22" y="14" width="4" height="4" rx="1" fill="#4CAF50"/>
  <rect x="18" y="14" width="4" height="4" rx="1" fill="#4CAF50"/>
  <rect x="14" y="14" width="4" height="4" rx="1" fill="#4CAF50"/>
  <rect x="14" y="18" width="4" height="4" rx="1" fill="#4CAF50"/>
  <rect x="14" y="22" width="4" height="4" rx="1" fill="#4CAF50"/>
  <rect x="10" y="22" width="4" height="4" rx="1" fill="#4CAF50"/>
  <rect x="6" y="22" width="4" height="4" rx="1" fill="#4CAF50"/>
  
  <!-- Snake head -->
  <rect x="6" y="18" width="4" height="4" rx="1" fill="#2E7D32"/>
  
  <!-- Snake eyes -->
  <circle cx="7" cy="19" r="0.7" fill="white"/>
  <circle cx="7" cy="21" r="0.7" fill="white"/>
  
  <!-- Food -->
  <rect x="22" y="22" width="4" height="4" rx="1" fill="#FF5722"/>
</svg>
